# xmcd
#
# Track frame offsets:
# 150
# 16821
# 35787
# 49706
# 71329
# 87593
# 102544
# 117173
# 132035
# 148047
# 165443
# 181947
# 195698
# 208279
# 225550
# 243667
# 258603
# 275414
# 290817
# 307824
#
# Disc length: 4370 seconds
#
# Revision: 0
# Processed by: cddbd v1.5.1PL2 Copyright (c) Steve Scherf et al.
# Submitted via: Audion 3.0.2 (http://www.panic.com/audion/)
#
DISCID=2a111014
DTITLE=Kalua - Exitos
DYEAR=1900
DGENRE=
TTITLE0=Chambacu
TTITLE1=Cumbia loca
TTITLE2=Te amare
TTITLE3=Kalua Mix
TTITLE4=Me enamore
TTITLE5=En esta mesa no comen dos
TTITLE6=Lo que no puedo soportar
TTITLE7=Como duele
TTITLE8=Papi
TTITLE9=Me la vas a pagar
TTITLE10=Besitos cachichurris
TTITLE11=Dame una oportunidad
TTITLE12=Querida socia
TTITLE13=Flor escondida
TTITLE14=Me estoy cansando de ti
TTITLE15=No lo puedo amar
TTITLE16=El chico aquel
TTITLE17=Vuelve a mi
TTITLE18=Almohada mojada
TTITLE19=Vamos a bailar
EXTD=
EXTT0=
EXTT1=
EXTT2=
EXTT3=
EXTT4=
EXTT5=
EXTT6=
EXTT7=
EXTT8=
EXTT9=
EXTT10=
EXTT11=
EXTT12=
EXTT13=
EXTT14=
EXTT15=
EXTT16=
EXTT17=
EXTT18=
EXTT19=
PLAYORDER=
